<?xml version="1.0" encoding="utf-8"?>
<!-- Generator: Adobe Illustrator 16.0.0, SVG Export Plug-In . SVG Version: 6.00 Build 0)  -->
<!DOCTYPE svg PUBLIC "-//W3C//DTD SVG 1.1//EN" "http://www.w3.org/Graphics/SVG/1.1/DTD/svg11.dtd">
<svg version="1.1" id="图层_1" xmlns="http://www.w3.org/2000/svg" xmlns:xlink="http://www.w3.org/1999/xlink" x="0px" y="0px"
	 width="96px" height="48px" viewBox="0 0 96 48" enable-background="new 0 0 96 48" xml:space="preserve">
<g>
	<path fill="#707070" d="M12.032,25.814c0.101,0,0.193,0.051,0.208,0.065l9.891,9.048c0.009,0.012,0.02,0.024,0.029,0.041
		c-0.158,0.127-0.541,0.3-0.899,0.34l-0.02,0.002l-0.008,0.001c-0.715,0.057-1.214,0.561-1.214,1.227v8.13v0.045
		c-0.009,0.753-0.626,1.365-1.38,1.365H15.13h-0.498c-0.057-0.001-0.198-0.028-0.275-0.097c-0.019-0.017-0.073-0.067-0.073-0.228
		v-2.607c-0.012-0.734-0.348-1.165-0.628-1.398c-0.552-0.459-1.324-0.509-1.63-0.509c-0.07,0-0.13,0.003-0.166,0.005
		c-0.708,0.029-1.247,0.24-1.604,0.623c-0.378,0.409-0.473,0.949-0.436,1.322v2.564c0,0.16-0.054,0.21-0.073,0.228
		c-0.077,0.068-0.217,0.096-0.269,0.097H5.466c-0.755,0-1.374-0.615-1.38-1.363v-0.036l0-8.134c0.005-0.473-0.195-0.757-0.365-0.912
		c-0.143-0.133-0.304-0.21-0.451-0.257L3.199,35.31H2.838c-0.306,0-0.73-0.19-0.896-0.337c0.009-0.017,0.021-0.032,0.031-0.045
		l9.834-9.007C11.908,25.827,11.98,25.814,12.032,25.814 M12.032,24.895c-0.277,0-0.578,0.096-0.855,0.354l-9.838,9.013l-0.021,0.02
		C1.113,34.496,1,34.771,1,35.056c0,0.646,1.128,1.176,1.838,1.176l0,0.001l0.012-0.001c0.047,0.001,0.178,0.014,0.247,0.077
		c0.045,0.043,0.068,0.118,0.067,0.226l-0.001,8.145v0.036C3.174,45.979,4.2,46.999,5.466,47h4.015c0.056,0,0.529-0.011,0.888-0.339
		c0.17-0.154,0.373-0.439,0.373-0.907v-2.595l0.002-0.026L10.738,43.1c-0.004-0.03-0.034-0.36,0.193-0.605
		c0.186-0.199,0.511-0.311,0.967-0.329l0.02-0.001c0.029-0.001,0.066-0.004,0.109-0.004c0.26,0,0.747,0.052,1.041,0.297
		c0.194,0.161,0.291,0.392,0.296,0.705v2.592c0,0.468,0.202,0.753,0.373,0.907C14.096,46.989,14.568,47,14.627,47l0,0l0.504-0.002
		l3.508,0.001h0.002c1.262-0.001,2.283-1.017,2.298-2.273v-8.188c0-0.231,0.199-0.296,0.367-0.309l0.047-0.004l0.007-0.002
		c0.715-0.077,1.745-0.542,1.745-1.168c0-0.285-0.112-0.56-0.317-0.774l-0.01-0.009l-9.917-9.073l-0.014-0.013
		C12.664,25.03,12.365,24.895,12.032,24.895L12.032,24.895z M12.032,24.895"/>
</g>
<g>
	<g>
		<path fill="#DE5463" d="M23.009,10.281l-0.011-0.01L12.981,1.107l-0.013-0.012c-0.343-0.291-1.075-0.514-1.688,0.062L1.343,10.26
			L1.32,10.281C1.114,10.498,1,10.774,1,11.062c0,0.655,1.141,1.187,1.856,1.187l0.001,0l0.013,0c0.047,0,0.18,0.017,0.249,0.08
			c0.046,0.043,0.07,0.119,0.068,0.227v8.227v0.036c0.01,1.276,1.045,2.308,2.323,2.308h4.055c0.058,0,0.536-0.01,0.898-0.342
			c0.172-0.157,0.376-0.442,0.376-0.916v-2.621l0.002-0.026l-0.005-0.033c-0.003-0.032-0.034-0.366,0.195-0.612
			c0.188-0.202,0.516-0.314,0.977-0.333l0.02-0.001c0.206-0.015,0.815,0.008,1.162,0.296c0.195,0.163,0.292,0.396,0.298,0.713v2.618
			c0,0.474,0.204,0.759,0.376,0.916c0.362,0.332,0.84,0.342,0.899,0.342h0.001l0.508-0.001l3.543,0.001h0.002
			c1.274-0.001,2.306-1.027,2.322-2.297V12.56c0-0.234,0.201-0.298,0.37-0.312l0.047-0.004l0.007-0.001
			c0.724-0.079,1.764-0.548,1.764-1.181C23.328,10.774,23.214,10.498,23.009,10.281L23.009,10.281z M23.009,10.281"/>
	</g>
</g>
<g>
	<g>
		<defs>
			<rect id="SVGID_1_" x="24.75" y="25.209" width="22.829" height="21.791"/>
		</defs>
		<clipPath id="SVGID_2_">
			<use xlink:href="#SVGID_1_"  overflow="visible"/>
		</clipPath>
		<path clip-path="url(#SVGID_2_)" fill="#707070" d="M45.441,41.483H31.808c-0.075,0-0.202-0.107-0.218-0.247l-1.322-9.311
			l-0.743-4.282c-0.167-1.367-1.372-2.438-2.742-2.438h-1.51c-0.289,0-0.522,0.233-0.522,0.522s0.234,0.521,0.522,0.521h1.51
			c0.851,0,1.601,0.669,1.709,1.548l0.744,4.291l1.318,9.282c0.077,0.639,0.64,1.158,1.254,1.158h13.634
			c0.289,0,0.522-0.235,0.522-0.523S45.73,41.483,45.441,41.483L45.441,41.483z M45.441,41.483"/>
		<path clip-path="url(#SVGID_2_)" fill="#707070" d="M47.178,27.891c-0.223-0.253-0.518-0.387-0.85-0.387H32.247
			c-0.289,0-0.522,0.233-0.522,0.521c0,0.289,0.234,0.523,0.522,0.523h14.082c0.026,0,0.039,0.001,0.067,0.032
			c0.07,0.08,0.132,0.266,0.113,0.427l-1.403,8.037c-0.021,0.168-0.208,0.322-0.428,0.324l-10.905,0.804
			c-0.288,0.021-0.504,0.272-0.482,0.56c0.02,0.275,0.249,0.484,0.521,0.484c0.013,0,0.026-0.001,0.039-0.002l10.871-0.803
			c0.713-0.003,1.338-0.549,1.419-1.214l1.403-8.038C47.598,28.694,47.458,28.207,47.178,27.891L47.178,27.891z M47.178,27.891"/>
	</g>
	<path fill="#707070" d="M43.733,44.154c-0.777,0-1.41,0.633-1.41,1.409c0,0.777,0.633,1.409,1.41,1.409s1.409-0.632,1.409-1.409
		C45.142,44.787,44.51,44.154,43.733,44.154L43.733,44.154z M43.733,44.154"/>
	<path fill="#707070" d="M32.679,44.154c-0.777,0-1.41,0.633-1.41,1.409c0,0.777,0.633,1.409,1.41,1.409
		c0.777,0,1.409-0.632,1.409-1.409C34.088,44.787,33.456,44.154,32.679,44.154L32.679,44.154z M32.679,44.154"/>
</g>
<g>
	<g>
		<defs>
			<rect id="SVGID_3_" x="24.539" y="1" width="23.098" height="22.078"/>
		</defs>
		<clipPath id="SVGID_4_">
			<use xlink:href="#SVGID_3_"  overflow="visible"/>
		</clipPath>
		<path clip-path="url(#SVGID_4_)" fill="#DE5463" d="M47.245,3.733c-0.226-0.256-0.523-0.392-0.86-0.392H29.34
			c-0.232-1.315-1.405-2.327-2.744-2.327h-1.528c-0.292,0-0.529,0.236-0.529,0.527c0,0.293,0.237,0.53,0.529,0.53h1.528
			c0.862,0,1.62,0.675,1.73,1.566l0.753,4.345l1.334,9.397c0.077,0.646,0.647,1.171,1.269,1.171h13.804
			c0.292,0,0.528-0.237,0.528-0.529c0-0.292-0.237-0.529-0.528-0.529H31.683c-0.075,0-0.204-0.107-0.221-0.251l-0.26-1.831
			l2.548-0.214l11.005-0.812c0.721-0.004,1.355-0.556,1.437-1.229l1.421-8.138C47.669,4.546,47.528,4.053,47.245,3.733L47.245,3.733
			z M47.245,3.733"/>
	</g>
	<path fill="#DE5463" d="M43.757,20.197c-0.788,0-1.428,0.641-1.428,1.428c0,0.786,0.641,1.426,1.428,1.426
		c0.785,0,1.426-0.64,1.426-1.426C45.183,20.837,44.542,20.197,43.757,20.197L43.757,20.197z M43.757,20.197"/>
	<path fill="#DE5463" d="M32.566,20.197c-0.788,0-1.427,0.641-1.427,1.428c0,0.786,0.641,1.426,1.427,1.426
		c0.786,0,1.426-0.64,1.426-1.426C33.992,20.837,33.352,20.197,32.566,20.197L32.566,20.197z M32.566,20.197"/>
</g>
<g>
	<path fill="#707070" stroke="#707070" stroke-width="0.3" stroke-miterlimit="10" d="M65.262,30.353H55.057
		c-0.153,0-0.277,0.124-0.277,0.276s0.124,0.275,0.277,0.275h10.205c0.153,0,0.276-0.123,0.276-0.275S65.415,30.353,65.262,30.353
		L65.262,30.353z M65.262,30.353"/>
	<path fill="#707070" stroke="#707070" stroke-width="0.3" stroke-miterlimit="10" d="M65.262,34.911H55.057
		c-0.153,0-0.277,0.124-0.277,0.275c0,0.153,0.124,0.276,0.277,0.276h10.205c0.153,0,0.276-0.123,0.276-0.276
		C65.538,35.035,65.415,34.911,65.262,34.911L65.262,34.911z M65.262,34.911"/>
	<path fill="#707070" stroke="#707070" stroke-width="0.3" stroke-miterlimit="10" d="M61.859,39.47h-6.803
		c-0.153,0-0.277,0.123-0.277,0.276c0,0.151,0.124,0.274,0.277,0.274h6.803c0.152,0,0.276-0.123,0.276-0.274
		C62.136,39.593,62.012,39.47,61.859,39.47L61.859,39.47z M61.859,39.47"/>
	<path fill="#707070" stroke="#707070" stroke-width="0.3" stroke-miterlimit="10" d="M67.164,25.104H53.062
		c-1.221,0-2.215,0.993-2.215,2.215v17.57c0,1.222,0.994,2.215,2.215,2.215h9.668c0.009,0,0.019,0,0.026-0.001
		c0.004-0.001,0.006-0.001,0.01-0.002c0.005-0.001,0.012-0.001,0.017-0.002c0.004,0,0.008-0.001,0.011-0.003
		c0.006-0.001,0.01-0.002,0.016-0.004c0.004-0.001,0.006-0.002,0.01-0.003c0.006-0.001,0.01-0.003,0.016-0.005
		c0.003-0.002,0.007-0.004,0.011-0.006c0.004-0.001,0.008-0.003,0.012-0.006s0.009-0.005,0.012-0.007s0.007-0.004,0.01-0.006
		c0.006-0.003,0.01-0.007,0.016-0.01c0.001-0.002,0.004-0.003,0.006-0.005c0.006-0.004,0.011-0.01,0.018-0.015l0,0l0.001-0.001
		c0.003-0.002,0.005-0.005,0.008-0.007l6.362-5.902l0,0c0.007-0.007,0.013-0.013,0.018-0.019c0.002-0.002,0.003-0.002,0.004-0.003
		c0.004-0.006,0.009-0.012,0.014-0.017c0-0.002,0.002-0.004,0.003-0.006c0.004-0.005,0.008-0.01,0.01-0.015
		c0.002-0.004,0.004-0.007,0.005-0.01c0.003-0.004,0.005-0.009,0.007-0.013s0.004-0.008,0.006-0.011
		c0.002-0.004,0.002-0.009,0.004-0.012c0.002-0.005,0.004-0.009,0.006-0.014c0.001-0.005,0.003-0.008,0.003-0.012
		c0.001-0.005,0.003-0.01,0.004-0.016c0.001-0.002,0.002-0.006,0.003-0.009c0-0.006,0.002-0.013,0.003-0.018
		c0-0.003,0-0.007,0-0.009c0.001-0.007,0.001-0.013,0.001-0.02c0-0.001,0-0.002,0-0.003v-13.6
		C69.378,26.098,68.384,25.104,67.164,25.104L67.164,25.104z M63.007,46.196v-3.339c0-0.916,0.746-1.663,1.663-1.663h3.729
		L63.007,46.196z M68.826,40.643H64.67c-1.222,0-2.215,0.994-2.215,2.215v3.694h-9.393c-0.916,0-1.663-0.745-1.663-1.662v-17.57
		c0-0.917,0.747-1.662,1.663-1.662h14.102c0.916,0,1.662,0.745,1.662,1.662V40.643z M68.826,40.643"/>
</g>
<g>
	<path fill="#DE5463" d="M67.319,1.11H53.12c-1.23,0-2.23,1-2.23,2.23v17.693c0,1.23,1,2.231,2.23,2.231h9.735
		c0.01,0,0.019-0.001,0.027-0.001c0.003-0.001,0.007-0.001,0.01-0.001c0.006-0.001,0.011-0.002,0.017-0.003
		c0.004-0.001,0.007-0.002,0.011-0.002c0.005-0.002,0.011-0.003,0.015-0.004c0.005-0.001,0.008-0.002,0.011-0.003
		c0.005-0.002,0.01-0.003,0.015-0.005c0.003-0.002,0.008-0.003,0.011-0.005c0.004-0.002,0.009-0.003,0.013-0.005
		c0.005-0.002,0.008-0.004,0.013-0.007c0.004-0.002,0.006-0.004,0.01-0.006c0.005-0.003,0.011-0.007,0.014-0.01
		c0.002-0.002,0.004-0.003,0.007-0.004c0.006-0.005,0.012-0.01,0.019-0.015c0,0,0,0,0-0.001l0.001-0.001
		c0.003-0.002,0.005-0.004,0.007-0.006l6.408-5.944l0,0c0.006-0.006,0.013-0.012,0.018-0.019c0.002,0,0.003-0.001,0.003-0.002
		c0.004-0.005,0.01-0.011,0.014-0.017c0.001-0.002,0.002-0.004,0.003-0.006c0.005-0.004,0.008-0.01,0.012-0.015
		c0.001-0.002,0.003-0.005,0.004-0.009c0.003-0.004,0.006-0.009,0.008-0.013c0.001-0.004,0.003-0.008,0.004-0.012
		c0.002-0.004,0.005-0.007,0.006-0.011c0.002-0.005,0.003-0.01,0.005-0.014c0.002-0.003,0.002-0.007,0.003-0.011
		c0.002-0.005,0.003-0.011,0.004-0.017c0.001-0.002,0.001-0.005,0.002-0.008c0.001-0.007,0.003-0.013,0.003-0.019
		c0.001-0.002,0.001-0.004,0.001-0.007c0.001-0.007,0.001-0.014,0.001-0.021c0,0,0-0.001,0-0.002V3.341
		C69.55,2.111,68.55,1.11,67.319,1.11L67.319,1.11z M55.127,6.396h10.277c0.153,0,0.278,0.124,0.278,0.278
		c0,0.153-0.125,0.278-0.278,0.278H55.127c-0.153,0-0.277-0.125-0.277-0.278C54.85,6.52,54.974,6.396,55.127,6.396L55.127,6.396z
		 M61.979,16.131h-6.852c-0.153,0-0.277-0.124-0.277-0.277c0-0.153,0.124-0.278,0.277-0.278h6.852c0.154,0,0.279,0.125,0.279,0.278
		C62.258,16.008,62.133,16.131,61.979,16.131L61.979,16.131z M55.127,11.542c-0.153,0-0.277-0.125-0.277-0.278
		s0.124-0.278,0.277-0.278h10.277c0.153,0,0.278,0.125,0.278,0.278s-0.125,0.278-0.278,0.278H55.127z M63.134,22.351v-3.363
		c0-0.924,0.751-1.675,1.675-1.675h3.755L63.134,22.351z M63.134,22.351"/>
</g>
<g>
	<g>
		<path fill="#707070" d="M86.702,37.135c2.139-1.075,3.607-3.288,3.607-5.847c0-3.614-2.929-6.54-6.54-6.54
			s-6.539,2.926-6.539,6.54c0,2.559,1.47,4.772,3.609,5.847c-3.372,0.986-6.034,3.632-7.047,6.995v2.639
			c0,0.17,0.137,0.308,0.306,0.308h19.346c0.169,0,0.306-0.138,0.306-0.308V44.13C92.737,40.767,90.073,38.12,86.702,37.135
			L86.702,37.135z M92.879,46.229H74.688v-2.1c0,0,1.98-5.42,7.56-6.49c0,0,0.4-0.095,0.4-0.417c0-0.255-0.215-0.39-0.303-0.435
			c-2.428-0.637-4.216-2.845-4.216-5.471c0-3.122,2.53-5.652,5.652-5.652c3.124,0,5.655,2.53,5.655,5.652
			c0,2.601-1.756,4.79-4.146,5.45l0,0c0,0-0.003,0.001-0.006,0.003c-0.014,0.005-0.031,0.009-0.047,0.013
			c-0.102,0.031-0.325,0.135-0.325,0.413c0,0.361,0.401,0.45,0.401,0.45s5.048,0.606,7.564,6.483V46.229L92.879,46.229z
			 M92.879,46.229"/>
	</g>
</g>
<g>
	<g>
		<path fill="#DE5463" d="M87.087,13.296c2.167-1.089,3.656-3.333,3.656-5.926c0-3.66-2.968-6.627-6.627-6.627
			c-3.661,0-6.628,2.967-6.628,6.627c0,2.593,1.49,4.837,3.658,5.927c-3.416,1-6.116,3.682-7.142,7.087v2.675
			c0,0.172,0.138,0.311,0.312,0.311h19.602c0.174,0,0.312-0.139,0.312-0.311v-2.675C93.204,16.979,90.503,14.295,87.087,13.296
			L87.087,13.296z M87.087,13.296"/>
	</g>
</g>
</svg>
